<svg xmlns="http://www.w3.org/2000/svg" viewBox="-18.9 -2390.4 4193.8 2922.4" role="img" aria-label="PET">
<g transform="scale(1,-1)">
<path transform="translate(0.0,0)" d="M729 571H457V156Q457 67 415.0 21.0Q373 -25 309 -25Q242 -25 201.0 20.5Q160 66 160 154V1284Q160 1382 205.0 1424.0Q250 1466 348 1466H729Q898 1466 989 1440Q1079 1415 1144.5 1357.0Q1210 1299 1244.0 1215.0Q1278 1131 1278 1026Q1278 802 1140.0 686.5Q1002 571 729 571ZM657 1243H457V795H657Q762 795 832.5 817.0Q903 839 940.0 889.0Q977 939 977 1020Q977 1117 920 1178Q856 1243 657 1243Z" fill="#bf5e3b"/>
<path transform="translate(1366.0,0)" d="M1126 1237H457V877H1073Q1141 877 1174.5 846.5Q1208 816 1208 766Q1208 716 1175.0 684.5Q1142 653 1073 653H457V236H1149Q1219 236 1254.5 203.5Q1290 171 1290 117Q1290 65 1254.5 32.5Q1219 0 1149 0H342Q245 0 202.5 43.0Q160 86 160 182V1284Q160 1348 179.0 1388.5Q198 1429 238.5 1447.5Q279 1466 342 1466H1126Q1197 1466 1231.5 1434.5Q1266 1403 1266 1352Q1266 1300 1231.5 1268.5Q1197 1237 1126 1237Z" fill="#bf5e3b"/>
<path transform="translate(2732.0,0)" d="M1112 1221H788V156Q788 64 747.0 19.5Q706 -25 641 -25Q575 -25 533.5 20.0Q492 65 492 156V1221H168Q92 1221 55.0 1254.5Q18 1288 18 1343Q18 1400 56.5 1433.0Q95 1466 168 1466H1112Q1189 1466 1226.5 1432.0Q1264 1398 1264 1343Q1264 1288 1226.0 1254.5Q1188 1221 1112 1221Z" fill="#bf5e3b"/>
<rect x="748.3" y="-353.0" width="357.8" height="372.8" rx="178.9" fill="#bf5e3b"/>
<rect x="3049.9" y="-353.0" width="357.8" height="372.8" rx="178.9" fill="#bf5e3b"/>
<circle cx="1600.9" cy="1958.0" r="253.5" fill="#221b18"/>
<circle cx="1494.4" cy="2084.8" r="86.2" fill="#ffffff"/>
<circle cx="2555.1" cy="1958.0" r="253.5" fill="#221b18"/>
<circle cx="2448.7" cy="2084.8" r="86.2" fill="#ffffff"/>
</g></svg>